<svg xmlns="http://www.w3.org/2000/svg" width="26.784" height="35.328" viewBox="0 0 26.784 35.328">
  <defs>
    <style>
      .cls-1 {
        fill: #776080;
        opacity: 0.16;
      }
    </style>
  </defs>
  <path id="Path_2736" data-name="Path 2736" class="cls-1" d="M15.024.528c8.352,0,13.3-4.08,13.3-10.512,0-4.368-2.688-7.2-6.672-8.064,3.408-1.2,5.664-3.6,5.664-7.44,0-5.376-4.416-9.312-11.952-9.312-7.824,0-12.288,4.608-12.672,10.9H9.552c.384-3.216,2.4-5.184,5.664-5.184,3.168,0,4.752,1.824,4.752,4.272,0,2.928-1.632,4.56-5.232,4.56h-2.5v5.184h2.688c3.7,0,5.52,1.68,5.52,4.944,0,3.072-1.824,4.944-5.712,4.944-4.128,0-5.9-2.4-6.192-5.712H1.536C1.824-3.936,6.288.528,15.024.528Z" transform="translate(-1.536 34.8)"/>
</svg>
